<svg xmlns="http://www.w3.org/2000/svg" version="1.1" width="1024" height="1024">
<path d="M0 0 C3.32885208 2.68760155 6.50067644 5.52830068 9.6328125 8.44140625 C10.23480469 8.99957031 10.83679688 9.55773437 11.45703125 10.1328125 C33.70625104 31.00579189 48.70846206 57.09766726 61.43139648 84.59008789 C65.77953753 93.96920535 70.48413225 102.10582426 76.6328125 110.44140625 C78.28639651 112.81834821 79.90138732 115.2198992 81.5078125 117.62890625 C81.91435059 118.23726318 82.32088867 118.84562012 82.73974609 119.47241211 C87.93565574 127.31691897 92.77768859 135.3833774 97.6328125 143.44140625 C93.66717373 144.76328584 91.53682301 143.36439282 87.8828125 141.81640625 C77.45700503 137.6558384 66.63123198 135.52218831 55.6328125 133.44140625 C54.59181396 133.2400708 54.59181396 133.2400708 53.52978516 133.03466797 C21.41940262 126.99645533 -15.58047429 133.84802594 -43.08740234 151.54833984 C-46.66041587 154.00325299 -50.02402268 156.68562031 -53.3671875 159.44140625 C-54.15480469 160.05371094 -54.94242188 160.66601562 -55.75390625 161.296875 C-69.90866171 172.88253 -80.10457216 191.37523956 -82.3671875 209.44140625 C-84.91838699 240.8431443 -74.35953836 262.05956501 -54.4296875 285.56640625 C-47.63174558 293.46072093 -40.40475758 300.83020172 -32.484375 307.60546875 C-29.96119295 309.79346795 -27.51164231 312.05433738 -25.0546875 314.31640625 C-19.65252328 319.23689602 -14.06828548 323.87312384 -8.3671875 328.44140625 C-7.17696016 329.4008889 -5.98686269 330.36053265 -4.796875 331.3203125 C29.49681143 358.92688569 65.86971008 383.92080787 103.76269531 406.33496094 C105.6875851 407.47381218 107.60940388 408.61774009 109.53125 409.76171875 C174.03312818 448.04439624 242.26729008 483.51421698 312.48095703 510.24023438 C316.37845142 511.72556918 320.2596745 513.25055268 324.14135742 514.77661133 C331.85267668 517.80809644 339.56737195 520.83021273 347.3203125 523.75390625 C347.95751221 523.99560547 348.59471191 524.23730469 349.2512207 524.48632812 C353.17086731 525.95407569 357.12154166 527.19001153 361.1328125 528.37890625 C366.8765192 530.26501534 370.47067835 533.13936843 374.6328125 537.44140625 C375.28765625 538.09625 375.9425 538.75109375 376.6171875 539.42578125 C377.97006211 540.77865586 379.31766794 542.13681823 380.66015625 543.5 C382.44777358 545.25929864 384.28007376 546.88650161 386.1953125 548.50390625 C390.39236519 552.10256727 394.24543892 556.0160004 398.1328125 559.94140625 C403.71825262 565.61641371 403.71825262 565.61641371 409.6328125 570.94140625 C413.73762779 574.50262244 417.7094765 578.18184587 421.6328125 581.94140625 C422.31730469 582.57111328 423.00179687 583.20082031 423.70703125 583.84960938 C427.01685148 587.06879558 428.50711251 588.56952969 429.18359375 593.26171875 C428.53436232 597.00976404 427.65499771 598.19635438 424.6328125 600.44140625 C411.36350975 604.86450717 396.96652784 600.60938788 384.6328125 595.44140625 C383.8912793 595.14121582 383.14974609 594.84102539 382.38574219 594.53173828 C359.90402938 585.2817031 338.87682082 570.48329934 322.12109375 552.90234375 C320.67774584 551.33578175 320.67774584 551.33578175 318.6328125 550.44140625 C318.18243995 553.22779888 318.18243995 553.22779888 318.6328125 556.44140625 C320.40248722 558.47059157 321.90925365 559.88807121 324.0078125 561.50390625 C324.58289551 561.96651855 325.15797852 562.42913086 325.75048828 562.90576172 C327.69096528 564.44596095 329.65651136 565.94748354 331.6328125 567.44140625 C332.33921875 567.97781738 333.045625 568.51422852 333.7734375 569.06689453 C343.44026606 576.48944922 343.44026606 576.48944922 353.90625 582.66796875 C361.21461717 586.33315758 365.60781952 589.28010438 368.3203125 597.25390625 C369.23278602 600.29058808 369.95836875 603.34391504 370.6328125 606.44140625 C370.92720215 607.74416504 370.92720215 607.74416504 371.22753906 609.07324219 C372.50807528 614.83877844 373.62180696 620.62314832 374.6328125 626.44140625 C374.82617188 627.48296875 375.01953125 628.52453125 375.21875 629.59765625 C376.78553347 640.35820689 376.13732237 649.07296126 369.8203125 658.00390625 C366.55430641 660.15013882 364.45272453 660.04455025 360.6328125 659.44140625 C358.1328125 657.37890625 358.1328125 657.37890625 355.6328125 654.44140625 C354.55524748 653.39377359 353.47140952 652.35257085 352.3828125 651.31640625 C348.54221188 647.49250389 345.22296364 643.29578046 341.828125 639.078125 C339.4620891 636.2363559 336.9503616 633.66632821 334.296875 631.09765625 C331.9466367 628.75845194 329.81272201 626.25256255 327.6484375 623.7421875 C325.1880102 620.9336765 322.66308049 618.18677054 320.1328125 615.44140625 C317.11340496 612.1629896 314.11078746 608.87559245 311.1953125 605.50390625 C303.57034811 596.7324675 295.62112824 588.28582578 287.30078125 580.171875 C285.25473416 578.07789709 283.34555385 575.97306545 281.44238281 573.75537109 C277.78963311 569.56618134 273.94673188 565.61045551 270.01171875 561.6875 C269.30812729 560.98295181 268.60453583 560.27840363 267.87962341 559.55250549 C266.40266602 558.07487258 264.92446508 556.59848168 263.44506836 555.12329102 C261.20116165 552.88474144 258.96264546 550.64090152 256.72460938 548.39648438 C255.27896632 546.95150221 253.83301305 545.50683033 252.38671875 544.0625 C251.7281337 543.40189072 251.06954865 542.74128143 250.39100647 542.06065369 C246.53901466 538.2277087 242.58252828 534.57821711 238.45201111 531.04652405 C236.60009172 529.41253601 234.8614731 527.70457611 233.1328125 525.94140625 C230.16545927 522.92727043 227.05935958 520.14223292 223.85546875 517.3828125 C221.30304367 515.15336564 218.81393736 512.86139243 216.3203125 510.56640625 C211.86378012 506.50165694 207.28312566 502.65013532 202.58984375 498.86328125 C198.56836005 495.56959579 194.64513644 492.16644451 190.71508789 488.76464844 C186.63591935 485.25151066 182.45751285 481.92418723 178.109375 478.74609375 C177.62210938 478.31554687 177.13484375 477.885 176.6328125 477.44140625 C176.6328125 476.78140625 176.6328125 476.12140625 176.6328125 475.44140625 C180.5928125 475.44140625 184.5528125 475.44140625 188.6328125 475.44140625 C188.6328125 474.78140625 188.6328125 474.12140625 188.6328125 473.44140625 C187.5897998 473.50199219 186.54678711 473.56257813 185.47216797 473.625 C166.07002955 474.73503022 146.6954493 475.64683351 127.2578125 475.62890625 C126.502724 475.62963135 125.7476355 475.63035645 124.96966553 475.63110352 C107.41390713 475.62918312 90.09013081 474.59585896 72.67114258 472.39453125 C70.06879331 472.06621459 67.46525098 471.74916155 64.86132812 471.43359375 C56.48921723 470.405 48.14386599 469.26441976 39.8203125 467.89453125 C39.10294418 467.77735748 38.38557587 467.66018372 37.64646912 467.53945923 C31.18569845 466.44311433 24.93938145 464.78878251 18.63574219 462.99609375 C16.46725489 462.39555704 14.29081991 461.8367226 12.109375 461.28515625 C-3.13977856 457.41957107 -17.94621672 452.76802569 -32.3671875 446.44140625 C-33.56214844 445.94125 -34.75710938 445.44109375 -35.98828125 444.92578125 C-50.72214989 438.71551581 -65.15934898 431.48787099 -78.3671875 422.44140625 C-79.28999512 421.81975586 -79.28999512 421.81975586 -80.23144531 421.18554688 C-100.29751533 407.62971682 -118.50460877 391.63551977 -133.3671875 372.44140625 C-134.18832031 371.41402344 -135.00945312 370.38664062 -135.85546875 369.328125 C-141.64201854 362.03720422 -146.65392725 354.48055579 -151.3671875 346.44140625 C-152.0478125 345.33023437 -152.7284375 344.2190625 -153.4296875 343.07421875 C-158.18874428 335.20269394 -161.67164803 327.22444068 -164.64501953 318.52880859 C-165.36670824 316.44279154 -166.12713517 314.37427248 -166.89453125 312.3046875 C-171.12994867 300.60290328 -173.63961849 288.6574386 -175.83129883 276.42211914 C-176.18181899 274.47246052 -176.55073845 272.5259977 -176.94018555 270.58374023 C-178.54339385 262.13493959 -178.72341831 253.817716 -178.6796875 245.25390625 C-178.67786469 244.51118469 -178.67604187 243.76846313 -178.67416382 243.00323486 C-178.58738635 221.86627814 -175.50001626 201.72895658 -170.94726562 181.11669922 C-170.10597725 177.23671691 -169.34736323 173.34363387 -168.6171875 169.44140625 C-168.39546875 168.26578125 -168.17375 167.09015625 -167.9453125 165.87890625 C-166.76900603 158.88465158 -166.18504601 152.10163365 -166.09375 145.01953125 C-166.08144852 144.12897034 -166.06914703 143.23840942 -166.05647278 142.32086182 C-166.02441745 139.44434536 -166.00555189 136.56806836 -165.9921875 133.69140625 C-165.98434738 132.22441284 -165.98434738 132.22441284 -165.97634888 130.7277832 C-165.9353611 114.12178105 -167.38671988 98.61449602 -171.3671875 82.44140625 C-171.5384314 81.37442505 -171.5384314 81.37442505 -171.71313477 80.28588867 C-172.60130453 77.781177 -173.72650949 77.24848603 -176.0234375 75.9609375 C-176.78914063 75.52394531 -177.55484375 75.08695312 -178.34375 74.63671875 C-179.17648437 74.18039062 -180.00921875 73.7240625 -180.8671875 73.25390625 C-181.73085938 72.77050781 -182.59453125 72.28710938 -183.484375 71.7890625 C-185.26338924 70.7978229 -187.04597591 69.8129684 -188.83203125 68.83447266 C-191.05430318 67.61333594 -193.25933332 66.36720005 -195.4609375 65.109375 C-208.20371349 57.96347611 -221.79811933 52.78813457 -235.3671875 47.44140625 C-237.03427551 46.77579392 -238.70108571 46.10948338 -240.3671875 45.44140625 C-240.3671875 44.78140625 -240.3671875 44.12140625 -240.3671875 43.44140625 C-223.95598311 36.60810321 -207.53158378 29.80888988 -190.96511841 23.35900879 C-189.61084054 22.83164916 -188.25721844 22.3026023 -186.90426636 21.77185059 C-185.02033253 21.03386212 -183.13328366 20.3038405 -181.24609375 19.57421875 C-180.1794751 19.16059082 -179.11285645 18.74696289 -178.01391602 18.32080078 C-175.3671875 17.44140625 -175.3671875 17.44140625 -172.3671875 17.44140625 C-172.109375 16.549375 -171.8515625 15.65734375 -171.5859375 14.73828125 C-165.71226258 -1.15076245 -148.1935353 -12.52122961 -133.6171875 -19.37109375 C-131.87490041 -20.11850242 -130.12535553 -20.84934822 -128.3671875 -21.55859375 C-127.66722656 -21.84347656 -126.96726562 -22.12835938 -126.24609375 -22.421875 C-118.89630693 -25.13115369 -111.06709629 -26.26749793 -103.3671875 -27.55859375 C-101.69849609 -27.84283203 -101.69849609 -27.84283203 -99.99609375 -28.1328125 C-65.00351517 -32.23850794 -27.78979521 -21.580384 0 0 Z " fill="#F8B92A" transform="translate(449.3671875,196.55859375)"/>
<path d="M0 0 C0.68739258 0.3309668 1.37478516 0.66193359 2.08300781 1.00292969 C18.02371077 8.72621719 31.55020244 18.41174914 44.40234375 30.5546875 C46.57123235 32.59637812 48.7790487 34.52770436 51.0625 36.4375 C60.41606285 44.59287918 68.04347536 54.40565769 75.59082031 64.19238281 C77.47285231 66.60654859 79.40171117 68.98111256 81.33056641 71.35791016 C92.33033528 84.93818495 102.54936822 99.09738415 112.34521484 113.56494141 C113.97442107 115.96235996 115.61293455 118.35325038 117.25401306 120.74255371 C118.82246104 123.02697767 120.38769918 125.31359074 121.95248413 127.6005249 C122.73021708 128.73608262 123.50903559 129.87089767 124.28897095 131.00494385 C125.38615744 132.60122059 126.47833387 134.20093741 127.5703125 135.80078125 C128.52574951 137.19550659 128.52574951 137.19550659 129.50048828 138.6184082 C131 141 131 141 132 144 C126.01352662 145.71773046 120.01369187 147.38010476 114 149 C112.84491943 149.31227539 112.84491943 149.31227539 111.66650391 149.63085938 C95.00389503 154.05703272 78.00290201 156.64428796 60.99731445 159.35546875 C57.45433939 159.92216754 53.91864053 160.52693133 50.3828125 161.13671875 C4.68745564 168.75846544 -51.16225142 162.12495937 -89.8125 135.125 C-108.91757718 120.48453873 -122.35003708 103.23205928 -129 80 C-129.17958252 79.37754395 -129.35916504 78.75508789 -129.54418945 78.11376953 C-133.59701601 59.31924767 -128.326811 41.14641475 -119 25 C-117.15944765 22.16640545 -115.18559665 19.57203547 -113 17 C-112.2575 16.01 -111.515 15.02 -110.75 14 C-84.64620378 -16.27713042 -33.49829866 -16.62384397 0 0 Z " fill="#151517" transform="translate(533,363)"/>
<path d="M0 0 C8.12867018 0.56059794 16.04087154 2.3326727 24 4 C24 6 24 6 21.8671875 8.23046875 C20.92101562 9.14441406 19.97484375 10.05835938 19 11 C17.01637826 13.08083144 15.07112758 15.19661577 13.125 17.3125 C12.59326172 17.89008057 12.06152344 18.46766113 11.51367188 19.06274414 C6.6538844 24.35495776 1.92314031 29.74342917 -2.73828125 35.2109375 C-3.76283092 36.41162041 -4.78757646 37.61213621 -5.8125 38.8125 C-6.32981689 39.41868164 -6.84713379 40.02486328 -7.38012695 40.64941406 C-10.58502229 44.3907082 -13.85209278 48.06115383 -17.1875 51.6875 C-20.33926825 55.11898144 -23.34024381 58.61146509 -26.25 62.25 C-30.53165453 67.56411024 -35.15465554 72.49156826 -39.84008789 77.44555664 C-44.03592994 81.90480969 -47.95269513 86.51412086 -51.7734375 91.30078125 C-55.19175443 95.4447409 -58.85374285 99.34845194 -62.51953125 103.2734375 C-64.79527558 105.77496434 -66.90142085 108.35018628 -69 111 C-52.291325 108.58215644 -35.64763019 105.80370329 -19 103 C-13.79201789 102.12289999 -8.58374863 101.24753822 -3.375 100.375 C-2.12267578 100.16520508 -0.87035156 99.95541016 0.41992188 99.73925781 C8.27120768 98.43209562 16.12773227 97.18064261 24.01025391 96.07568359 C28.88302187 95.37667007 33.71523447 94.50498549 38.55078125 93.5859375 C46.78593068 92.02100538 55.04220309 90.61526087 63.3125 89.25 C64.86711647 88.99216853 66.42172227 88.73427271 67.97631836 88.47631836 C88.22976871 85.12060601 108.4956455 81.84036428 128.76013184 78.55212402 C134.24960685 77.66130202 139.73898939 76.76991389 145.22824097 75.87771606 C147.02713812 75.58542086 148.82606773 75.29332531 150.62503052 75.00143433 C160.19349243 73.44863027 169.75867707 71.8793855 179.31640625 70.26171875 C180.14124008 70.12251511 180.96607391 69.98331146 181.81590271 69.83988953 C185.68538773 69.18675184 189.55415468 68.52992054 193.42163086 67.86499023 C197.27559385 67.20665632 201.13575712 66.59533029 205 66 C206.06805374 65.82150513 207.13610748 65.64301025 208.23652649 65.45910645 C215.13540892 64.50598635 215.13540892 64.50598635 219.14135742 66.79492188 C220.36109253 68.1184668 220.36109253 68.1184668 221.60546875 69.46875 C222.28613152 70.17843933 222.28613152 70.17843933 222.98054504 70.90246582 C224.4139745 72.4090072 225.8001664 73.95103295 227.1875 75.5 C228.12657575 76.50799428 229.06861931 77.51323217 230.01367188 78.515625 C231.84463745 80.45826405 233.66391668 82.40955752 235.47753906 84.36865234 C238.25092406 87.26175566 241.17221441 89.8591942 244.22875977 92.44433594 C247.00663355 94.88411702 249.43406917 97.60440322 251.875 100.375 C255.03282325 104.17973559 255.03282325 104.17973559 259 107 C259 107.66 259 108.32 259 109 C256.61080347 110.19459826 254.60342642 110.42617015 251.95339966 110.79962158 C250.89706266 110.95134197 249.84072567 111.10306236 248.75237846 111.25938034 C247.01894282 111.50465406 247.01894282 111.50465406 245.25048828 111.75488281 C230.80821208 113.84723605 216.41378283 116.18714202 202.01944113 118.58456326 C198.5180687 119.16715146 195.01622444 119.74689106 191.51443481 120.32696533 C184.87270838 121.42756766 178.23135221 122.5303862 171.59015191 123.63415837 C159.85731586 125.58407506 148.12378207 127.52978914 136.39024091 129.47545767 C132.80780117 130.0695096 129.22538612 130.66370952 125.64302826 131.258255 C104.92179107 134.69715463 84.19603167 138.10719319 63.46139526 141.46453857 C53.78946641 143.03350626 44.13049446 144.65539114 34.48571777 146.3838501 C30.12456668 147.15474522 25.75401994 147.84017505 21.375 148.5 C15.8621734 149.34877106 10.39802474 150.29085179 4.9375 151.4375 C-5.26052332 153.54325401 -15.57033607 154.97883526 -25.86474609 156.52685547 C-30.26627449 157.19109484 -34.66499448 157.87218305 -39.0625 158.5625 C-39.72540039 158.66498047 -40.38830078 158.76746094 -41.07128906 158.87304688 C-45.7316091 159.60522246 -50.37527182 160.41832768 -55.01953125 161.24609375 C-63.45480138 162.74705795 -71.90254031 164.17271757 -80.3515625 165.59375 C-81.75779051 165.83050022 -83.16401504 166.06727103 -84.57023621 166.30406189 C-90.39031798 167.28382613 -96.21048436 168.26307529 -102.03125 169.23876953 C-105.63682807 169.84323434 -109.24201112 170.45001059 -112.84696579 171.05818176 C-114.83980876 171.39374678 -116.83305928 171.72688864 -118.82632446 172.05993652 C-126.46612093 173.35017427 -134.06185493 174.77848964 -141.65020752 176.33804321 C-146.78433751 177.35260522 -151.94761833 178.11907146 -157.125 178.875 C-171.45644702 181.02424085 -185.72813047 183.489128 -200 186 C-201.29945557 186.22776123 -202.59891113 186.45552246 -203.93774414 186.69018555 C-210.77332264 187.89042204 -217.60545872 189.10673391 -224.43205261 190.35716248 C-227.85800315 190.98312827 -231.28545518 191.60062172 -234.71313477 192.21704102 C-236.45565787 192.53242019 -238.19752004 192.85147183 -239.9387207 193.17407227 C-266.88724492 198.15765182 -266.88724492 198.15765182 -276.80078125 192.5703125 C-280.73630657 189.7602216 -283.83415319 186.33169363 -286 182 C-286.6979325 176.75225439 -287.04210439 171.65243922 -283.875 167.1875 C-282.62562252 165.7536906 -281.32376914 164.36542621 -280 163 C-279.49533203 162.46407227 -278.99066406 161.92814453 -278.47070312 161.37597656 C-276.70454276 159.5056269 -274.91961849 157.65555076 -273.125 155.8125 C-272.26044189 154.92050903 -272.26044189 154.92050903 -271.37841797 154.01049805 C-263.07559734 145.72974086 -255.54429116 142.92249339 -244 141 C-243.29494324 140.88150696 -242.58988647 140.76301392 -241.86346436 140.64093018 C-237.21541905 139.86961249 -232.56074282 139.14609203 -227.90270996 138.43789673 C-215.02336738 136.47665888 -202.19689185 134.38086161 -189.4140625 131.859375 C-179.5656225 129.91791093 -169.63484605 128.4177179 -159.72265625 126.84375 C-157.04412527 126.41757569 -154.3657497 125.99043842 -151.6875 125.5625 C-151.01452881 125.45497406 -150.34155762 125.34744812 -149.64819336 125.23666382 C-140.43977294 123.76104403 -131.24608118 122.23172101 -122.10864258 120.359375 C-118.17814231 119.55917697 -114.32590336 118.89517 -110.328125 118.54296875 C-103.49145888 117.86506213 -98.15887864 117.00496403 -93.3737793 111.70703125 C-91.54250062 109.43152023 -89.83455945 107.09306625 -88.17919922 104.68701172 C-86.44071766 102.1998673 -84.50463501 99.89236963 -82.5625 97.5625 C-81.48162109 96.23412109 -81.48162109 96.23412109 -80.37890625 94.87890625 C-77.12078183 90.9359872 -73.78052945 87.0661729 -70.44165039 83.19165039 C-67.41054711 79.66701081 -64.43014684 76.10960118 -61.5 72.5 C-55.62596304 65.2712302 -49.51941302 58.24297133 -43.43847656 51.18847656 C-37.65088944 44.47080638 -31.92711379 37.71893791 -26.3359375 30.8359375 C-23.1466304 26.96396934 -19.87868881 23.16227842 -16.60620117 19.3605957 C-12.50574658 14.59676466 -8.43963517 9.80491356 -4.38916016 4.99853516 C-1.10025517 1.10025517 -1.10025517 1.10025517 0 0 Z " fill="#161618" transform="translate(468,663)"/>
<path d="M0 0 C3.32885208 2.68760155 6.50067644 5.52830068 9.6328125 8.44140625 C10.23480469 8.99957031 10.83679688 9.55773437 11.45703125 10.1328125 C33.89475884 31.18263941 48.65189284 57.47330058 61.8203125 85.00390625 C62.12420898 85.62934326 62.42810547 86.25478027 62.74121094 86.89916992 C63.43517369 88.38524636 64.04318647 89.91093292 64.6328125 91.44140625 C64.3028125 92.10140625 63.9728125 92.76140625 63.6328125 93.44140625 C62.94058594 92.77496094 62.24835938 92.10851562 61.53515625 91.421875 C53.72185183 84.01572558 45.44543054 77.60910469 36.6328125 71.44140625 C35.74601807 70.80936279 35.74601807 70.80936279 34.84130859 70.16455078 C12.18426761 54.06000403 -15.06600208 41.03415628 -42.69140625 36.53125 C-43.59366943 36.37817383 -44.49593262 36.22509766 -45.42553711 36.06738281 C-47.17264573 35.78277446 -48.92514664 35.52892083 -50.68188477 35.31152344 C-56.56531602 34.3640957 -56.56531602 34.3640957 -58.93408203 31.63842773 C-60.17319634 29.6117802 -61.2692985 27.54667823 -62.3671875 25.44140625 C-64.02895275 23.47760581 -64.02895275 23.47760581 -65.7421875 22.12890625 C-66.26554688 21.67902344 -66.78890625 21.22914063 -67.328125 20.765625 C-73.01889402 17.06989569 -77.99673832 15.85623682 -84.6796875 15.87890625 C-85.42444336 15.88132324 -86.16919922 15.88374023 -86.93652344 15.88623047 C-94.51589884 16.13821753 -99.66690389 18.76699875 -105.04296875 24.10546875 C-106.77496064 26.08628201 -108.18973019 28.08649162 -109.3671875 30.44140625 C-112.27660432 30.82850923 -115.13116521 31.10178803 -118.0546875 31.31640625 C-128.55619884 32.2127832 -138.79293551 34.01113001 -149.13183594 36.01611328 C-151.86976604 36.53702571 -154.61524911 37.00091446 -157.3671875 37.44140625 C-157.05007813 38.01503906 -156.73296875 38.58867187 -156.40625 39.1796875 C-155.06330244 41.62444563 -153.73029722 44.07437161 -152.40332031 46.52783203 C-151.67036113 47.88149227 -150.93510858 49.2339119 -150.19824219 50.58544922 C-141.24557154 67.04783066 -134.50535719 83.12762829 -130.3671875 101.44140625 C-130.11839844 102.54226563 -129.86960937 103.643125 -129.61328125 104.77734375 C-127.07648862 118.86275177 -126.73356324 135.39190744 -129.3671875 149.44140625 C-141.10265907 150.87007235 -152.53915516 151.73506774 -164.3671875 151.44140625 C-164.3969165 150.32620605 -164.3969165 150.32620605 -164.42724609 149.18847656 C-164.95173695 127.58280981 -164.95173695 127.58280981 -167.03369141 106.08886719 C-167.27449379 104.1772559 -167.47193175 102.26001017 -167.64208984 100.34082031 C-168.48270968 87.50680984 -168.48270968 87.50680984 -174.18603516 76.41064453 C-178.65888144 72.88772906 -183.65551517 70.64744291 -188.89648438 68.49609375 C-191.87270791 67.22561098 -194.60550917 65.67609334 -197.40429688 64.06079102 C-209.41470365 57.21157273 -222.53652465 52.49717482 -235.3671875 47.44140625 C-237.03427551 46.77579392 -238.70108571 46.10948338 -240.3671875 45.44140625 C-240.3671875 44.78140625 -240.3671875 44.12140625 -240.3671875 43.44140625 C-223.95598311 36.60810321 -207.53158378 29.80888988 -190.96511841 23.35900879 C-189.61084054 22.83164916 -188.25721844 22.3026023 -186.90426636 21.77185059 C-185.02033253 21.03386212 -183.13328366 20.3038405 -181.24609375 19.57421875 C-180.1794751 19.16059082 -179.11285645 18.74696289 -178.01391602 18.32080078 C-175.3671875 17.44140625 -175.3671875 17.44140625 -172.3671875 17.44140625 C-172.109375 16.549375 -171.8515625 15.65734375 -171.5859375 14.73828125 C-165.71226258 -1.15076245 -148.1935353 -12.52122961 -133.6171875 -19.37109375 C-131.87490041 -20.11850242 -130.12535553 -20.84934822 -128.3671875 -21.55859375 C-127.66722656 -21.84347656 -126.96726562 -22.12835938 -126.24609375 -22.421875 C-118.89630693 -25.13115369 -111.06709629 -26.26749793 -103.3671875 -27.55859375 C-101.69849609 -27.84283203 -101.69849609 -27.84283203 -99.99609375 -28.1328125 C-65.00351517 -32.23850794 -27.78979521 -21.580384 0 0 Z " fill="#161617" transform="translate(449.3671875,196.55859375)"/>
<path d="M0 0 C5.09082049 0.06230035 7.92387788 3.74691148 11.34089661 7.13192749 C12.28540495 8.10280284 13.22957713 9.07400531 14.17344666 10.04550171 C15.1846032 11.0602718 16.19731499 12.0734942 17.2114563 13.08528137 C19.95869712 15.83478371 22.68388135 18.60525202 25.40577769 21.37981534 C28.26389328 24.28550745 31.14233776 27.1709142 34.01879883 30.0584259 C39.46994458 35.53649613 44.90343774 41.03172414 50.33043534 46.53370756 C58.27656378 54.58800868 66.24957314 62.61562856 74.22172642 70.64415646 C75.40222588 71.83309526 76.58271172 73.0220476 77.76318359 74.21101379 C78.34009636 74.79202833 78.91700913 75.37304286 79.5114041 75.97166389 C82.92334888 79.40901319 86.33054202 82.85098555 89.7333926 86.29733765 C91.85963522 88.45033645 93.9878462 90.60138346 96.11628914 92.7522068 C97.0959621 93.74324662 98.07469565 94.73521618 99.05236816 95.72822952 C103.9440569 100.69621739 108.87800372 105.51447344 114.17174053 110.05277538 C116.87531573 112.40814237 119.40322247 114.92192005 121.92832947 117.46566772 C122.46766617 118.0048584 123.00700287 118.54404907 123.56268311 119.09957886 C125.31561314 120.85319618 127.06498875 122.61031233 128.8143158 124.36752319 C130.04621722 125.60129429 131.27834301 126.83484139 132.51068115 128.06817627 C135.73474488 131.2960326 138.95579582 134.5268787 142.17619324 137.75839233 C145.45023412 141.04267759 148.72711582 144.3241257 152.00376892 147.60580444 C157.29501916 152.90580855 162.58458078 158.20749059 167.8717804 163.51153564 C170.89797247 166.5471024 173.92726644 169.57952783 176.95884705 172.60971069 C176.62884705 173.26971069 176.29884705 173.92971069 175.95884705 174.60971069 C166.38467068 170.22103574 156.96747893 165.62951339 147.67564392 160.67025757 C140.893769 157.06518417 134.02926315 153.64213484 127.14634705 150.23471069 C118.18074261 145.78276164 109.32957993 141.17656562 100.5667572 136.33847046 C93.40622178 132.38559279 86.19478257 128.53457755 78.96815491 124.70455933 C67.45251475 118.59807311 56.04169356 112.34122694 44.7205658 105.87924194 C39.5135604 102.9108971 34.26814901 100.01577043 29.01719666 97.12606812 C15.68511068 89.78171271 2.58766897 82.10764011 -10.4176178 74.20053101 C-13.23070822 72.49477099 -16.05589145 70.81058697 -18.88490295 69.13143921 C-29.07923366 63.07131506 -39.1046643 56.73489336 -49.14613342 50.42611694 C-51.71337093 48.81536917 -54.28451151 47.21115214 -56.8575592 45.60971069 C-110.18780375 12.3164091 -110.18780375 12.3164091 -113.04115295 6.60971069 C-112.2328302 6.6789978 -111.42450745 6.74828491 -110.59169006 6.81967163 C-100.91891284 7.58666998 -91.30351769 7.851115 -81.60365295 7.85971069 C-80.80323578 7.86071777 -80.0028186 7.86172485 -79.17814636 7.86276245 C-56.57739299 7.84376482 -34.35819572 5.32943005 -12.03309631 1.88021851 C-10.9529425 1.71489624 -9.8727887 1.54957397 -8.75990295 1.37924194 C-7.82082092 1.23075806 -6.88173889 1.08227417 -5.91419983 0.92929077 C-2.9997706 0.64727008 -2.9997706 0.64727008 0 0 Z " fill="#161618" transform="translate(627.0411529541016,541.3902893066406)"/>
<path d="M0 0 C0.56164352 0.34337906 1.12328705 0.68675812 1.70195007 1.0405426 C3.53343715 2.16158686 5.36043406 3.28973613 7.1875 4.41796875 C9.09643707 5.58922872 11.00641844 6.75877305 12.91642761 7.92828369 C14.1943298 8.71097982 15.47184629 9.49430603 16.74897766 10.27825928 C22.09672893 13.55913934 27.48176859 16.77498122 32.875 19.98046875 C40.1906962 24.34965671 47.37333713 28.89064142 54.50390625 33.5546875 C59.15390444 36.59432328 63.83682158 39.58136215 68.52075195 42.56835938 C108.79274201 68.25545531 108.79274201 68.25545531 126.1875 82.60546875 C133.589506 88.70541376 141.01015736 94.6610172 149 99.98046875 C149.62471191 100.40046143 150.24942383 100.8204541 150.89306641 101.25317383 C153.60080013 103.04073763 156.18396239 104.603845 159.140625 105.9609375 C164.31190303 108.35304066 166.64338069 110.6975398 168.80175781 116.07275391 C172.39841329 126.2740508 174.34005413 136.97356198 176.1875 147.60546875 C176.38085938 148.64703125 176.57421875 149.68859375 176.7734375 150.76171875 C178.34022097 161.52226939 177.69200987 170.23702376 171.375 179.16796875 C168.10899391 181.31420132 166.00741203 181.20861275 162.1875 180.60546875 C159.6875 178.54296875 159.6875 178.54296875 157.1875 175.60546875 C156.10993498 174.55783609 155.02609702 173.51663335 153.9375 172.48046875 C150.09689938 168.65656639 146.77765114 164.45984296 143.3828125 160.2421875 C141.0167766 157.4004184 138.5050491 154.83039071 135.8515625 152.26171875 C133.5013242 149.92251444 131.36740951 147.41662505 129.203125 144.90625 C126.7426977 142.097739 124.21776799 139.35083304 121.6875 136.60546875 C118.66809246 133.3270521 115.66547496 130.03965495 112.75 126.66796875 C105.12503561 117.89653 97.17581574 109.44988828 88.85546875 101.3359375 C86.80942166 99.24195959 84.90024135 97.13712795 82.99707031 94.91943359 C79.34432061 90.73024384 75.50141938 86.77451801 71.56640625 82.8515625 C70.86281479 82.14701431 70.15922333 81.44246613 69.43431091 80.71656799 C67.95735352 79.23893508 66.47915258 77.76254418 64.99975586 76.28735352 C62.75584915 74.04880394 60.51733296 71.80496402 58.27929688 69.56054688 C56.83365382 68.11556471 55.38770055 66.67089283 53.94140625 65.2265625 C52.95352867 64.23564857 52.95352867 64.23564857 51.94569397 63.22471619 C48.09370216 59.3917712 44.13721578 55.74227961 40.00669861 52.21058655 C38.15477922 50.57659851 36.4161606 48.86863861 34.6875 47.10546875 C31.72014677 44.09133293 28.61404708 41.30629542 25.41015625 38.546875 C22.85773117 36.31742814 20.36862486 34.02545493 17.875 31.73046875 C13.41846762 27.66571944 8.83781316 23.81419782 4.14453125 20.02734375 C0.12304755 16.73365829 -3.80017606 13.33050701 -7.73022461 9.92871094 C-11.80939315 6.41557316 -15.98779965 3.08824973 -20.3359375 -0.08984375 C-20.82320312 -0.52039063 -21.31046875 -0.9509375 -21.8125 -1.39453125 C-21.8125 -2.05453125 -21.8125 -2.71453125 -21.8125 -3.39453125 C-19.89666353 -3.59033215 -17.97977461 -3.77585339 -16.0625 -3.95703125 C-14.46148438 -4.11365234 -14.46148438 -4.11365234 -12.828125 -4.2734375 C-7.53333717 -4.48605204 -4.48971841 -2.76265928 0 0 Z " fill="#161617" transform="translate(647.8125,675.39453125)"/>
<path d="M0 0 C3.85666944 0.64351234 7.19402809 1.78421109 10.796875 3.29296875 C11.91215576 3.75550049 13.02743652 4.21803223 14.17651367 4.69458008 C15.35576416 5.18724365 16.53501465 5.67990723 17.75 6.1875 C25.5090216 9.39136132 33.25180177 12.57062614 41.1875 15.3125 C41.84951416 15.54606201 42.51152832 15.77962402 43.19360352 16.02026367 C46.47305816 17.16780763 49.75758794 18.22854092 53.09375 19.19921875 C63.88194766 22.52240896 70.07471534 28.15705763 77.57080078 36.45703125 C79.24820672 38.26796489 81.03498526 39.86639105 82.9375 41.4375 C87.02621173 44.89038615 90.73734476 48.70077418 94.5 52.5 C100.08544607 58.17500033 100.08544607 58.17500033 106 63.5 C110.10481529 67.06121619 114.076664 70.74043962 118 74.5 C118.68449219 75.12970703 119.36898437 75.75941406 120.07421875 76.40820312 C123.38403898 79.62738933 124.87430001 81.12812344 125.55078125 85.8203125 C124.90154982 89.56835779 124.02218521 90.75494813 121 93 C107.73069725 97.42310092 93.33371534 93.16798163 81 88 C80.2584668 87.69980957 79.51693359 87.39961914 78.75292969 87.09033203 C59.07233102 78.99280709 40.51002852 66.54458696 25 52 C24.44779785 51.48872559 23.8955957 50.97745117 23.32666016 50.45068359 C12.09110741 39.97611706 0.44827547 27.02854758 -0.3046875 10.83984375 C-0.35913993 7.21812421 -0.22502662 3.61542766 0 0 Z " fill="#161618" transform="translate(753,704)"/>
<path d="M0 0 C1.12607666 0.00858032 1.12607666 0.00858032 2.27490234 0.01733398 C10.62622128 0.28478511 16.40736933 3.1752308 22.625 8.6875 C28.57907742 15.21868658 30.5309237 22.82826455 30.1953125 31.54296875 C28.80019302 40.80705159 23.19581951 47.19192212 16.0859375 52.81640625 C9.09224905 57.23752648 -0.94928169 56.47623579 -8.81640625 55.02734375 C-16.22817703 52.60510164 -21.40165716 47.05643595 -25.25 40.5 C-25.60578125 39.93796875 -25.9615625 39.3759375 -26.328125 38.796875 C-28.81837151 32.59236252 -28.17775547 23.84423485 -26.41015625 17.47265625 C-21.45601907 6.64694907 -11.94332331 -0.10542151 0 0 Z " fill="#F9F8F5" transform="translate(364.25,211.5)"/>
<path d="M0 0 C1.82006836 1.82226562 1.82006836 1.82226562 3.33984375 4.40625 C3.92000244 5.36539307 4.50016113 6.32453613 5.09790039 7.31274414 C5.70496826 8.36453857 6.31203613 9.41633301 6.9375 10.5 C8.26760056 12.71782503 9.5983476 14.93526246 10.9296875 17.15234375 C11.61201695 18.30430963 12.29398283 19.45649093 12.97558594 20.60888672 C16.0837503 25.81539938 19.32700736 30.93455739 22.5625 36.0625 C28.09415882 44.89110242 33.52893944 53.77543898 38.9284668 62.68530273 C42.68398534 68.87076841 46.50064985 75.01331434 50.375 81.125 C50.86339355 81.89682617 51.35178711 82.66865234 51.85498047 83.46386719 C53.66760296 86.32668441 55.48065781 89.18909727 57.30810547 92.04248047 C58.48314018 93.87821413 59.64875397 95.71959784 60.8125 97.5625 C61.45832031 98.57441406 62.10414063 99.58632813 62.76953125 100.62890625 C63.37861328 101.80259766 63.37861328 101.80259766 64 103 C63.67 103.66 63.34 104.32 63 105 C61.80903249 103.83687329 60.62247296 102.66923328 59.4375 101.5 C58.77621094 100.8503125 58.11492187 100.200625 57.43359375 99.53125 C55.45693173 97.47526767 53.57586644 95.39021721 51.70703125 93.23828125 C47.98811944 88.9577704 44.14182793 84.81074161 40.25 80.6875 C39.20501343 79.57773804 39.20501343 79.57773804 38.13891602 78.44555664 C33.28577666 73.31065456 28.33037477 68.3019727 23.3046875 63.3359375 C20.71595208 60.71210058 18.330654 57.96392409 15.94140625 55.16015625 C12.94215826 51.82296482 9.73785512 48.69411378 6.52563477 45.56274414 C3.77301726 42.8578944 1.17376971 40.08232719 -1.34375 37.15625 C-5.18419456 32.71652728 -9.31371504 28.61139614 -13.5 24.5 C-25.39047253 12.82223718 -25.39047253 12.82223718 -29 8 C-29 7.34 -29 6.68 -29 6 C-28.37432129 5.85377197 -27.74864258 5.70754395 -27.10400391 5.55688477 C-24.27705709 4.89467208 -21.45102513 4.2286345 -18.625 3.5625 C-17.64015625 3.33240234 -16.6553125 3.10230469 -15.640625 2.86523438 C-14.69960938 2.64287109 -13.75859375 2.42050781 -12.7890625 2.19140625 C-11.91975098 1.98717041 -11.05043945 1.78293457 -10.15478516 1.57250977 C-2.99932394 -0.32864099 -2.99932394 -0.32864099 0 0 Z " fill="#171819" transform="translate(680,530)"/>
<path d="M0 0 C4.03102721 2.5239644 7.03181985 6.10660846 9.15234375 10.34765625 C9.6541294 16.79367193 10.11463649 22.93252284 6.15234375 28.34765625 C1.37587858 33.12412142 -2.81564463 35.63581143 -9.59765625 35.78515625 C-15.64035913 35.66739347 -19.37136758 34.38975526 -23.84765625 30.34765625 C-24.37488281 29.87457031 -24.90210938 29.40148437 -25.4453125 28.9140625 C-29.50232239 24.38241636 -29.63548946 19.40415308 -29.3984375 13.51171875 C-28.3172231 7.30048709 -24.68678988 3.46281461 -19.66015625 -0.08984375 C-12.79996744 -3.90105975 -6.89456225 -3.28817584 0 0 Z " fill="#171719" transform="translate(374.84765625,222.65234375)"/>
</svg>